<?xml version="1.0" encoding="utf-8"?>
<!-- Generator: Adobe Illustrator 22.1.0, SVG Export Plug-In . SVG Version: 6.00 Build 0)  -->
<svg version="1.1" id="Layer_1" xmlns="http://www.w3.org/2000/svg" xmlns:xlink="http://www.w3.org/1999/xlink" x="0px" y="0px"
	 viewBox="0 0 1162.2 1162.2" style="enable-background:new 0 0 1162.2 1162.2;" xml:space="preserve">
<style type="text/css">
	.st0{fill:#F6E9DC;}
	.st1{fill:#FFFFFF;stroke:#FFFFFF;stroke-miterlimit:10;}
	.st2{fill:#A27F5E;}
	.st3{fill:#A27F5E;stroke:#000000;stroke-width:2;stroke-linecap:round;stroke-linejoin:round;stroke-miterlimit:10;}
	.st4{fill:#A27F5E;stroke:#000000;stroke-width:2;stroke-miterlimit:10;}
	.st5{fill:none;stroke:#000000;stroke-width:2;stroke-miterlimit:10;}
	.st6{fill:#F6E9DC;stroke:#000000;stroke-width:2;stroke-miterlimit:10;}
	.st7{fill:#FFFFFF;}
	.st8{fill:#F6E9DC;stroke:#A27F5E;stroke-miterlimit:10;}
	.st9{fill:#413521;stroke:#000000;stroke-width:2;stroke-linecap:round;stroke-linejoin:round;stroke-miterlimit:10;}
	.st10{fill:#413521;stroke:#000000;stroke-width:2;stroke-miterlimit:10;}
	.st11{fill:#413521;stroke:#F6E9DC;stroke-miterlimit:10;}
	.st12{fill:#FFFFFF;stroke:#000000;stroke-width:2;stroke-linecap:round;stroke-linejoin:round;stroke-miterlimit:10;}
	.st13{fill:#FFFFFF;stroke:#000000;stroke-width:2;stroke-miterlimit:10;}
	.st14{stroke:#FFFFFF;stroke-miterlimit:10;}
	.st15{fill:#FFFFFF;stroke:#231F20;stroke-miterlimit:10;}
	.st16{fill:#42351F;}
	.st17{fill:#282419;}
	.st18{fill:#5F4E34;}
	.st19{stroke:#000000;stroke-miterlimit:10;}
	.st20{fill:none;stroke:#000000;stroke-width:2;stroke-linecap:round;stroke-linejoin:round;stroke-miterlimit:10;}
	.st21{stroke:#FFFFFF;stroke-width:2;stroke-linecap:round;stroke-linejoin:round;stroke-miterlimit:10;}
	.st22{stroke:#FFFFFF;stroke-width:2;stroke-miterlimit:10;}
	.st23{fill:none;stroke:#FFFFFF;stroke-width:2;stroke-miterlimit:10;}
	.st24{fill:#FFFFFF;stroke:#000000;stroke-miterlimit:10;}
	.st25{fill:none;stroke:#FFFFFF;stroke-width:2;stroke-linecap:round;stroke-linejoin:round;stroke-miterlimit:10;}
	.st26{fill:#5F4E34;stroke:#5F4E34;stroke-miterlimit:10;}
	.st27{fill:#413521;}
	.st28{fill:none;}
	.st29{opacity:0.96;}
</style>
<g>
	<circle cx="584.8" cy="585.3" r="279.4"/>
	<circle class="st2" cx="584.8" cy="585.3" r="196.9"/>
	<g>
		<path class="st7" d="M463.7,389.9c-0.6-0.8-1.7-2.1-2.6-3.1l-0.9-0.9l-21.6,17l2.7,3.4c1.2,1.5,2.4,1.9,3.3,2
			c1.3,0.1,2.5-0.3,3.8-1.2l9.6-7.6c2.8,5.6,0.8,12.6-5.2,17.1c-6.9,5.2-16.7,3.6-22.3-3.6c-5.7-7.2-4.9-17.4,1.8-22.7
			c3-2.4,6.6-3.5,10.6-3.2c2,0.1,4.4-0.2,5.8-3.4l2-4.8l-1.5-0.4c-7.9-2.1-16.1-0.4-22.4,4.6c-11.1,8.7-12.9,25-4.1,36.1
			c4.3,5.4,10.3,8.9,17,9.8c1.1,0.1,2.2,0.2,3.3,0.2c5.7,0,11.2-1.9,15.8-5.6C469.8,414.9,471.9,401.1,463.7,389.9L463.7,389.9z"/>
		<path class="st7" d="M490.5,361.7c-1.2,0.6-2.1,1.6-2.5,2.8c-0.4,1.2-0.3,2.5,0.3,3.8l6.4,13.2c1,2.1,1.2,4.4,0.6,6.3
			c-0.7,2-2.2,3.7-4.4,4.7c-2,1-3.8,1.1-5.4,0.5c-1.7-0.7-3.1-2.2-4.2-4.5l-6.6-13.7c-0.6-1.2-1.6-2.1-2.8-2.5
			c-1.2-0.4-2.5-0.3-3.7,0.3l-4.1,2l9.3,19.3c2.9,6,7.8,9.3,13.1,9.3c2.1,0,4.2-0.5,6.3-1.5c4.2-2,6.6-5.3,8-8.3
			c0.5,0.6,1.2,1.1,2,1.3c1.2,0.4,2.5,0.3,3.7-0.2l4.2-2l-15.8-32.7L490.5,361.7z"/>
		<path class="st7" d="M519.3,351.3c-6.6,1.8-10.9,5.6-12.1,6.7l-0.7,0.7l1.4,2.7c0.6,1.2,1.6,2,2.8,2.3c1.3,0.3,2.8,0.1,4.1-0.8
			c2.2-1.5,4.3-2.5,6.3-3.1c4.3-1.2,6.9-0.1,8.5,3.5c-2.6,0-5.2,0.3-8.2,1.1c-4,1.1-7.4,3.2-9.5,5.9c-2.3,2.9-3,6.5-2,10
			c1,3.6,3.2,6.1,6.3,7.5c1.6,0.7,3.3,1,5.2,1c1.6,0,3.3-0.2,5-0.7c4.1-1.1,7.1-3.1,8.9-5.8c1,1.5,2.7,2.1,4.6,1.6l4.9-1.4l-5.6-20
			C536.4,352.4,529.5,348.5,519.3,351.3z M530.7,377.1c-1.1,1.3-2.9,2.4-4.7,2.9h0c-1.6,0.5-3.3,0.5-4.6,0.1
			c-1.3-0.4-2.2-1.2-2.5-2.5c-0.3-1.2-0.1-2.4,0.7-3.4c1-1.2,2.7-2.2,5.1-2.9c2.1-0.6,3.8-0.8,5.6-0.8c0.5,0,0.9,0,1.4,0l0.2,0.8
			C532.5,373.5,532.1,375.4,530.7,377.1z"/>
		<path class="st7" d="M566.5,343.1l-1.4,0.2c-4.5,0.6-8,2.6-10.4,6c-0.2-1.1-0.8-2.1-1.7-2.8c-1-0.8-2.2-1.1-3.5-0.9l-4.8,0.6
			l4.7,36l4.8-0.6c2.7-0.4,4.4-2.6,4.1-5.3l-1.2-9.4c-0.7-5.8,0.5-9.9,3.7-11.9c0.6-0.5,1.7-1,2.6-1.3c2.7-0.5,4.3-2.8,3.9-5.5
			L566.5,343.1z"/>
		<path class="st7" d="M586.3,342.3c-6.9-0.1-12,2.4-13.5,3.2l-0.9,0.5l0.6,2.9c0.3,1.3,1,2.4,2.1,3c1.2,0.7,2.7,0.8,4.2,0.4
			c2.6-0.8,4.8-1.2,6.9-1.2c2.5,0,4.3,0.6,5.5,1.7c0.9,0.9,1.5,2.2,1.7,3.9c-2.5-0.7-5.1-1.1-8.2-1.2c-4.1,0-8,1.1-10.8,3.1
			c-3,2.2-4.7,5.4-4.7,9.1c0,3.7,1.4,6.8,4,8.9c2.5,2,5.8,3.1,9.8,3.1c0.1,0,0.1,0,0.2,0c4.2,0,7.5-1.1,10-3.2c0.5,1.7,2,2.7,4,2.8
			l5.1,0l0.2-20.8C602.4,348.2,596.7,342.4,586.3,342.3z M592.9,364.3l0,0.9c0,5.5-5.7,6.6-8,6.6c0,0,0,0,0,0
			c-1.7,0-3.3-0.4-4.5-1.2c-1.2-0.8-1.8-1.8-1.7-3.1c0-1.3,0.6-2.3,1.7-3.1c1.3-0.9,3.3-1.4,5.6-1.4
			C588.7,363.1,590.6,363.5,592.9,364.3z"/>
		<path class="st7" d="M654.8,338.7c-1.5-0.3-2.8-0.1-4,0.6c-1.1,0.7-1.9,1.9-2.2,3.4l-5.3,24.6l-22-35.8l-4.5-1l-10.4,48.7l4.9,1.1
			c2.9,0.6,5.4-1,6.1-4l5.2-24.6l22,35.7l4.5,1l10.4-48.7L654.8,338.7z"/>
		<path class="st7" d="M695.2,369.2c-1.2-0.6-2.6-0.6-3.7-0.1c-1.2,0.5-2.1,1.4-2.7,2.6l-6,13.4c-1,2.2-2.6,3.8-4.5,4.5
			c-2,0.8-4.2,0.7-6.5-0.3c-5.2-2.3-4.6-6.7-3.1-9.9l6.2-13.9c0.6-1.2,0.6-2.6,0.1-3.8c-0.5-1.2-1.4-2.2-2.6-2.7l-4.2-1.9l-8.8,19.6
			c-3.8,8.4-1.1,16.4,6.6,19.9c4.3,1.9,8.3,1.7,11.5,0.7c-0.3,2.1,0.8,4.1,2.8,5.1l4.3,1.9l14.8-33.1L695.2,369.2z"/>
		<path class="st7" d="M705.8,408.4l-0.3-0.2c-0.4-0.2-0.9-0.4-1.3-0.7c-0.8-0.6-1.3-1.2-0.1-3l9.1-14.2l2.3,1.5
			c1.1,0.7,2.4,0.9,3.6,0.7c1.2-0.3,2.3-1,3-2.1l2.3-3.6l-6.3-4l4.6-7.2l-4-2.6c-2.3-1.5-5.1-0.8-6.5,1.4l-2.1,3.3l-0.1,0
			c-1.1-0.7-2.4-0.9-3.6-0.7c-1.2,0.3-2.3,1-3,2.1l-2.3,3.6l4.1,2.6l-10,15.6c-1.6,2.5-2.1,5-1.4,7.4c0.6,2.3,2.3,4.4,4.9,6
			c3.8,2.4,7,2.5,7.2,2.5l1,0l1.3-3.3C708.9,411,707.5,409.1,705.8,408.4z"/>
		<path class="st7" d="M752.1,413.8c-1-3.9-3.7-8-7.5-11.2c-2.8-2.4-5.9-3.9-8.9-4.3c-3.6-0.4-6.7,0.9-9.2,3.7
			c-5.7,6.5-1.1,12.7,2.3,17.1c3,4,4.2,6,2.8,7.8c-1.2,1.3-3,0.9-5.5-1.3c-1.9-1.6-3.6-3.9-4.7-6.3c-1.4-2.7-4-3.9-6.5-2.9l-2.8,1
			l0.2,1.2c1,4.9,3.8,9.3,8.5,13.4c3,2.6,6.2,4.1,9.3,4.3c0.3,0,0.6,0,0.9,0c3,0,5.7-1.3,7.8-3.7c6.1-7,1.3-13.3-2.2-17.8
			c-2.8-3.7-4-5.6-2.7-7c0.6-0.7,1.3-0.9,2.3-0.7c0.9,0.2,1.9,0.8,2.9,1.6c1.7,1.4,3,3.2,4,5.1c1.4,2.4,4.1,3.4,6.5,2.3l2.6-1.2
			L752.1,413.8z"/>
	</g>
	<g>
		<g>
			<path class="st7" d="M425,758.2c-1.1-2-1.7-4-1.7-5.8c-0.1-1.9,0.6-3.6,1.9-5c1.3-1.4,3-2.2,4.9-2.3c2-0.1,3.7,0.6,5.1,1.9
				c1.4,1.3,2.2,3,2.3,5c0.1,1.1-0.3,2.4-1,4l-3.6-1.4c0.5-1.2,0.7-2,0.7-2.5c0-0.9-0.4-1.6-1-2.2c-0.7-0.6-1.4-0.9-2.3-0.9
				c-0.9,0-1.6,0.4-2.2,1c-0.6,0.7-0.9,1.4-0.9,2.3c0,1,0.3,2.1,0.8,3.4c1.2,2.2,1.9,4.5,2,6.8c0.1,2.6-0.7,4.9-2.5,6.8
				c-1.8,1.9-4,2.9-6.6,3s-4.9-0.7-6.8-2.5c-1.9-1.8-2.9-4-3-6.6c-0.1-2.1,0.6-4.2,2.1-6.4l3.8,1.6c-1.4,1.8-2,3.4-2,4.7
				c0.1,1.6,0.7,2.8,1.8,3.9c1.1,1,2.5,1.5,4,1.5c1.5-0.1,2.8-0.7,3.9-1.8c1-1.1,1.5-2.5,1.5-4C426.1,761.2,425.7,759.7,425,758.2z"
				/>
			<path class="st7" d="M444,755.4l3.1,2.4l-7.9,10.3c2.2-1,4.1-0.9,5.8,0.4c1.7,1.3,2.5,2.9,2.6,4.9c0.1,2-0.6,3.9-1.9,5.7
				l-7.8,10.1l-3.1-2.4l7.7-10c0.7-0.9,1-1.9,1-2.9c0-1-0.6-2-1.7-2.8c-1.3-1-2.8-1.1-4.6-0.2l-8.6,11.2l-3.1-2.4L444,755.4z"/>
			<path class="st7" d="M468.1,786.9l0.7-1.2l3.4,2.1l-10.3,16.7l-3.4-2.1l1.3-2.1c-2.7,0.7-5.1,0.4-7.2-1c-2.6-1.6-4.2-3.8-4.9-6.7
				c-0.7-2.9-0.2-5.6,1.3-8.2c1.6-2.6,3.8-4.2,6.7-4.9c2.9-0.7,5.6-0.3,8.2,1.3C466.1,782.3,467.5,784.3,468.1,786.9z M463.2,794.9
				l1.5-2.5c0.5-1.2,0.5-2.4,0.2-3.8c-0.4-1.8-1.5-3.2-3-4.2c-1.6-1-3.3-1.3-5.1-0.8c-1.8,0.4-3.2,1.4-4.2,3c-1,1.6-1.3,3.3-0.8,5.1
				c0.4,1.8,1.5,3.2,3.1,4.2c1.6,1,3.3,1.3,5.1,0.8C461.2,796.5,462.3,795.8,463.2,794.9z"/>
			<path class="st7" d="M487.9,795.6l-7.7,3.5l0.9,15l-4.2-2.1l-0.5-11.1l-0.2,0.1l-4.2,8.6l-3.6-1.7l11.9-24.2l3.6,1.7l-4.9,10
				l4.4-2L487.9,795.6z"/>
			<path class="st7" d="M492.6,814.1c0.4,0.8,1.4,1.5,3,2.1c1.8,0.7,3.5,0.6,5.2-0.1c0.2-0.1,0.7-0.4,1.4-0.7l3.2,2.7
				c-1.4,0.9-2.4,1.5-2.9,1.7c-2.7,1.2-5.5,1.3-8.3,0.2c-2.8-1.1-4.8-3-6-5.7c-1.2-2.7-1.3-5.5-0.2-8.3c1.1-2.8,3-4.8,5.7-6
				c2.7-1.2,5.5-1.3,8.3-0.2c2.4,0.9,4.2,2.5,5.5,4.6c0.2,0.4,0.4,0.7,0.6,1.1c0.1,0.2,0.3,0.7,0.6,1.5l-2.6,1.2L492.6,814.1z
				 M503.2,805.1c-0.3-0.5-1.2-1-2.6-1.6c-1.7-0.7-3.5-0.6-5.2,0.1c-1.7,0.8-2.9,2-3.6,3.8c-0.6,1.4-0.8,2.4-0.6,3L503.2,805.1z"/>
			<path class="st7" d="M544,814.6l2.5-12l3.9,0.8l-6.2,29.9l-3.9-0.8l0.5-2.4c-2.3,1.5-4.6,2.1-7.1,1.6c-2.9-0.6-5.2-2.2-6.9-4.7
				c-1.6-2.5-2.2-5.2-1.6-8.2c0.6-2.9,2.2-5.2,4.7-6.9c2.5-1.6,5.2-2.2,8.2-1.6C540.6,810.9,542.6,812.3,544,814.6z M542.1,823.8
				l0.6-2.9c0-1.3-0.4-2.5-1.1-3.7c-1-1.6-2.5-2.6-4.3-2.9c-1.8-0.4-3.6-0.1-5.1,1c-1.6,1-2.5,2.5-2.9,4.3c-0.4,1.8-0.1,3.5,1,5.1
				c1,1.6,2.5,2.5,4.3,2.9c1.8,0.4,3.5,0.1,5.1-1C540.8,825.9,541.7,825,542.1,823.8z"/>
			<path class="st7" d="M570.4,817.8l0.1-1.4l4,0.4l-1.8,19.6l-4-0.4l0.2-2.5c-2.1,1.8-4.4,2.6-6.9,2.3c-3-0.3-5.4-1.6-7.4-3.9
				c-1.9-2.3-2.7-4.9-2.5-7.9s1.6-5.4,3.9-7.4c2.3-1.9,4.9-2.7,7.9-2.5C566.5,814.5,568.7,815.7,570.4,817.8z M569.5,827.1l0.3-2.9
				c-0.1-1.2-0.6-2.4-1.5-3.5c-1.2-1.4-2.7-2.2-4.6-2.4c-1.9-0.2-3.5,0.3-5,1.5c-1.4,1.2-2.2,2.7-2.4,4.6c-0.2,1.9,0.3,3.5,1.6,5
				c1.2,1.4,2.7,2.3,4.6,2.4c1.9,0.2,3.5-0.3,5-1.5C568.5,829.4,569.2,828.3,569.5,827.1z"/>
			<path class="st7" d="M603.3,805.1l13.4,29.6l-4.2,0.3l-4.8-10.5l-8.1,0.6l-3.1,11.1l-4.2,0.3l8.7-31.3L603.3,805.1z M606.1,820.7
				l-3.2-6.9l-2,7.3L606.1,820.7z"/>
			<path class="st7" d="M618.7,814.6l3.9-0.8l0.3,1.8c0.4-2,1.6-3.3,3.8-3.7c2.1-0.4,3.5,0.4,4.2,2.5c0.2-2.3,1.7-3.7,4.4-4.2
				c2.7-0.5,4.4,0.9,5,4.2l3,15.3l-3.9,0.8l-2.6-13.6c-0.4-1.9-1.3-2.7-2.9-2.4c-0.6,0.1-1.1,0.5-1.5,1c-0.4,0.5-0.3,2.1,0.2,4.7
				l2.2,11.2l-3.9,0.8l-2.6-13.6c-0.4-1.9-1.3-2.7-2.9-2.4c-0.6,0.1-1.1,0.5-1.5,1c-0.3,0.5-0.4,1.5-0.1,3.2l2.5,12.7l-3.9,0.8
				L618.7,814.6z"/>
			<path class="st7" d="M661.6,805.3l-0.4-1.3l3.8-1.2l6,18.7l-3.8,1.2l-0.7-2.3c-1.2,2.5-3,4.1-5.4,4.8c-2.9,0.9-5.6,0.7-8.3-0.7
				c-2.7-1.4-4.4-3.5-5.4-6.4c-0.9-2.9-0.7-5.6,0.7-8.3c1.4-2.7,3.5-4.4,6.4-5.4C656.8,803.7,659.2,804,661.6,805.3z M664.5,814.2
				l-0.9-2.8c-0.6-1.1-1.5-2-2.8-2.6c-1.7-0.9-3.4-1-5.2-0.4c-1.8,0.6-3.1,1.7-4,3.4c-0.9,1.7-1,3.4-0.4,5.2c0.6,1.8,1.7,3.1,3.4,4
				c1.7,0.9,3.4,1,5.2,0.4c1.8-0.6,3.1-1.7,4-3.3C664.4,816.7,664.6,815.5,664.5,814.2z"/>
			<path class="st7" d="M679.8,800.8l-7.4,3.2l-1.6-3.6l13.6-6l-1.9,17.9l8-3.5l1.6,3.6l-14.3,6.2L679.8,800.8z"/>
			<path class="st7" d="M698,784l-2.3-0.5l-0.7,2.2l-3.6,2l1.7-6.1l2.4-1.4l6.2,1.7L698,784z M697.1,785.9c2.6-1.5,5.4-1.8,8.3-1
				c2.9,0.8,5.1,2.5,6.5,5.2s1.8,5.4,1,8.3c-0.8,2.9-2.5,5.1-5.1,6.5c-2.6,1.5-5.4,1.8-8.2,1c-2.9-0.8-5.1-2.5-6.5-5.1
				c-1.5-2.6-1.8-5.4-1-8.3S694.5,787.4,697.1,785.9z M695.9,793.6c-0.5,1.8-0.3,3.5,0.6,5.2c0.9,1.6,2.3,2.7,4.1,3.2
				c1.8,0.5,3.5,0.3,5.2-0.6c1.6-0.9,2.7-2.3,3.2-4.1c0.5-1.8,0.3-3.5-0.6-5.2c-0.9-1.6-2.3-2.7-4.1-3.2c-1.8-0.5-3.5-0.3-5.2,0.6
				C697.5,790.4,696.4,791.8,695.9,793.6z"/>
			<path class="st7" d="M717.2,781.7l8.2,11.8l-3.3,2.3l-11.3-16.1l3.2-2.3l1.3,1.9c-0.6-2.3,0.1-4.2,2.2-5.6
				c1.7-1.2,3.6-1.6,5.4-1.1c1.9,0.5,3.5,1.7,4.8,3.5l7.3,10.5l-3.2,2.3l-7.2-10.3c-0.6-0.9-1.5-1.5-2.7-1.7c-1.1-0.2-2.2,0-3.1,0.7
				c-0.9,0.6-1.5,1.5-1.7,2.7C717.1,780.8,717.1,781.3,717.2,781.7z"/>
			<path class="st7" d="M727.1,758.6c0.8,0.1,1.4,0.4,1.9,1c0.5,0.6,0.7,1.3,0.6,2c-0.1,0.8-0.4,1.4-1,1.9c-0.6,0.5-1.3,0.7-2,0.6
				c-0.8-0.1-1.4-0.4-1.9-1c-0.5-0.6-0.7-1.3-0.6-2c0.1-0.8,0.4-1.4,1-1.8C725.7,758.7,726.4,758.5,727.1,758.6z M731.7,764.3
				l12.3,15.3L741,782l-12.3-15.3L731.7,764.3z"/>
			<path class="st7" d="M749.6,750l-0.9-1l2.9-2.7l13.5,14.3l-2.9,2.7l-1.7-1.8c0,2.7-1,5-2.8,6.7c-2.2,2.1-4.8,3-7.8,3
				c-3-0.1-5.5-1.2-7.6-3.4c-2.1-2.2-3-4.8-3-7.8s1.2-5.5,3.4-7.6C744.6,750.7,746.9,749.9,749.6,750z M756.1,756.8l-2-2.1
				c-1-0.7-2.2-1.1-3.6-1.2c-1.9,0-3.5,0.6-4.9,1.9c-1.4,1.3-2.1,2.9-2.1,4.7c-0.1,1.9,0.6,3.5,1.8,4.9c1.3,1.4,2.9,2.1,4.7,2.1
				c1.9,0.1,3.5-0.6,4.9-1.9c1.4-1.3,2.1-2.9,2.1-4.7C757.1,759.1,756.7,757.9,756.1,756.8z"/>
		</g>
	</g>
	<g>
		<circle class="st7" cx="400.6" cy="435.8" r="8"/>
		<circle class="st7" cx="764.7" cy="440.6" r="8"/>
	</g>
	<path d="M584.9,783.9c-109.5,0-198.7-89.1-198.7-198.7s89.1-198.7,198.7-198.7s198.7,89.1,198.7,198.7S694.4,783.9,584.9,783.9z
		 M584.9,392.1c-106.5,0-193.1,86.6-193.1,193.1s86.6,193.1,193.1,193.1s193.1-86.6,193.1-193.1S691.3,392.1,584.9,392.1z"/>
	<path d="M584.9,864.6c-154.1,0-279.4-125.3-279.4-279.4s125.3-279.4,279.4-279.4s279.4,125.3,279.4,279.4S738.9,864.6,584.9,864.6z
		 M584.9,311.4c-151,0-273.8,122.8-273.8,273.8S433.9,859,584.9,859s273.8-122.8,273.8-273.8S735.8,311.4,584.9,311.4z"/>
	<g>
		<path class="st7" d="M404,743.7c-0.7,0-1.4-0.3-1.9-0.8c-0.5-0.5-50.5-49.6-56.5-144.8c-5.7-90.3,34.1-136.9,35.8-138.9
			c1-1.2,2.8-1.3,3.9-0.3c1.2,1,1.3,2.8,0.3,3.9c-0.4,0.5-40,46.9-34.4,134.8c5.9,92.9,54.3,140.7,54.8,141.1
			c1.1,1.1,1.1,2.8,0.1,3.9C405.5,743.5,404.8,743.7,404,743.7z"/>
		<path class="st7" d="M767.2,743.7c-0.7,0-1.5-0.3-2-0.9c-1.1-1.1-1-2.9,0.1-3.9c0.5-0.5,48.9-48.3,54.8-141.1
			c5.6-88.1-34-134.4-34.4-134.8c-1-1.2-0.9-2.9,0.3-3.9c1.2-1,2.9-0.9,3.9,0.3c1.7,1.9,41.5,48.5,35.8,138.9
			c-6,95.2-56,144.3-56.5,144.8C768.6,743.5,767.9,743.7,767.2,743.7z"/>
	</g>
	<path class="st27" d="M589.6,576.3l7.1-156c0,0-0.2,5.3-14.5,5.6c-12.4,0.3-11.4-4.6-11.4-4.6l-5,154.3L589.6,576.3z"/>
	<path d="M589.6,579C589.6,579,589.5,579,589.6,579l-23.8-0.7c-0.7,0-1.4-0.3-2-0.9c-0.5-0.5-0.8-1.3-0.8-2l5-153.8
		c0-0.4,0-0.8,0.1-1.1c0.3-1.4,1.6-2.4,3.1-2.2c1.4,0.2,2.5,1.4,2.5,2.9l0,0.1c0.3,0.5,2.2,1.8,8.5,1.6c9.9-0.2,11.6-2.9,11.8-3.2
		c0.2-1.4,1.4-2.4,2.9-2.4c1.5,0.1,2.7,1.4,2.7,2.9c0,0,0,0,0,0l-7.1,156C592.3,577.9,591.1,579,589.6,579z M568.7,572.9l18.2,0.5
		l6.7-146.6c-2.5,1-6.2,1.8-11.3,1.9c-3.7,0.1-6.6-0.2-8.8-1L568.7,572.9z"/>
	
		<ellipse transform="matrix(0.9994 -3.485722e-02 3.485722e-02 0.9994 -14.3118 20.6051)" class="st27" cx="583.8" cy="420.8" rx="12.9" ry="5.1"/>
	<path d="M582.8,428.7c-7.2,0-14.5-2.2-14.8-7.3c-0.1-1,0.2-2.4,1.5-3.9c2.4-2.6,7.7-4.4,13.8-4.6c7.6-0.3,15.8,1.9,16.1,7.2
		c0.1,1-0.2,2.4-1.5,3.9c-2.4,2.6-7.7,4.4-13.8,4.6C583.7,428.7,583.3,428.7,582.8,428.7z M573.7,421.2c0.7,0.6,4.3,2.1,10.2,1.9
		c5.6-0.2,8.9-1.8,9.8-2.7c-1-0.8-4.5-2.2-10.1-2C577.9,418.7,574.5,420.3,573.7,421.2z"/>
	<path class="st0" d="M501.9,543.5L518.1,721c0,0,17.8,23.1,58.7,23.7c40.9,0.6,60.5-23.1,60.5-23.1l21.8-178.1H501.9z"/>
	<path d="M578.4,747.5c-0.5,0-1.1,0-1.6,0c-41.7-0.6-60.1-23.8-60.8-24.8l-0.5-0.6l-16.6-181.3h163.4l-22.3,182l-0.5,0.6
		C638.6,724.4,619,747.5,578.4,747.5z M520.8,719.9c3.1,3.5,20.7,21.5,56,22c35.6,0.6,54.5-18,57.8-21.5L656,546.3H505L520.8,719.9z
		"/>
	<circle class="st7" cx="523.8" cy="632.3" r="3.5"/>
	<path d="M657.3,541.1h-153c-4.4,0-8-3.6-8-8v-6.8c0-42,34.2-76.1,76.1-76.1h16.6c42,0,76.1,34.2,76.1,76.1v6.8
		C665.2,537.5,661.6,541.1,657.3,541.1z M572.4,455.8c-38.9,0-70.6,31.6-70.6,70.6v6.8c0,1.3,1.1,2.4,2.4,2.4h153
		c1.3,0,2.4-1.1,2.4-2.4v-6.8c0-38.9-31.6-70.6-70.6-70.6H572.4z"/>
	<rect x="490.1" y="534.5" class="st2" width="179.7" height="18"/>
	<path d="M672.6,555.3H487.3v-23.6h185.3V555.3z M492.9,549.8H667v-12.4H492.9V549.8z"/>
	<path class="st7" d="M516.7,522.1c4.9-18.7,16.7-40.6,36.5-47.1c4.2-1.4,2.4-8.1-1.9-6.7c-22.2,7.3-35.9,30.7-41.4,52
		C508.8,524.5,515.5,526.4,516.7,522.1L516.7,522.1z"/>
	<path class="st7" d="M513.9,573.5c1.3,15.5,2.9,31,4.6,46.4c0.5,4.4,7.5,4.5,7,0c-1.7-15.5-3.3-30.9-4.6-46.4
		C520.5,569,513.5,569,513.9,573.5L513.9,573.5z"/>
	<path class="st27" d="M602.4,609.8c-5.3-1.5-10.7-0.3-15.3,3.4c-2.7,2.1-4.6,2.1-7-0.1c-1.8-1.7-4.2-2.9-7.2-3.5
		c-1.2-0.3-2.4-0.4-3.5-0.4c-3.8,0-7.6,1.3-10.7,3.8c-4.4,3.6-6.9,8.9-6.9,14.7c0,5.4,2.1,10.2,6.3,14.7
		c7.3,7.9,15.5,14.8,23.5,21.6c1.3,1.1,2.6,1.5,4.7-0.4c7.4-6.3,13.5-11.6,19.3-17.4l0.3-0.3c1.9-1.9,3.8-3.8,5.3-5.9
		c4.4-6.1,5.4-12.2,3.2-18.8C612.6,615.7,608,611.4,602.4,609.8z M604.7,638.4L604.7,638.4c-5.2,5.6-11,10.7-16.6,15.6l-2.5,2.2
		c-0.6,0.6-1.2,0.8-1.9,0.8c-0.6,0-1.2-0.3-1.8-0.8l-3.5-3c-5.4-4.8-11-9.7-16-15.2c-4.1-4.5-5.4-9.1-4-14.1c1.1-4,3.8-6.9,7.4-8.1
		c3.6-1.2,7.5-0.5,10.8,2c1.8,1.4,3.2,3,4.4,4.5c0.6,0.7,1.4,1.5,2.5,1.5c1.2,0.1,2-0.8,2.6-1.5c1.3-1.5,2.5-2.9,4-4.1
		c4.2-3.4,8.2-4.1,12.3-2c4.3,2.2,6.7,5.9,6.9,10.5C609.4,632.5,606.9,636,604.7,638.4z"/>
</g>
</svg>
