<svg xmlns="http://www.w3.org/2000/svg" version="1.1" xmlns:xlink="http://www.w3.org/1999/xlink" xmlns:svgjs="http://svgjs.dev/svgjs" width="1024" height="560" preserveAspectRatio="none" viewBox="0 0 1024 560"><g mask="url(&quot;#SvgjsMask1036&quot;)" fill="none"><path d="M105.94 213.48L123.47 213.48L123.47 231.01L105.94 231.01z" stroke="rgba(241, 177, 69, 0.5)"></path><path d="M693.78 77.52 a1.26 1.26 0 1 0 2.52 0 a1.26 1.26 0 1 0 -2.52 0z" fill="rgba(241, 177, 69, 0.5)"></path><path d="M918.34 362.28 a39.33 39.33 0 1 0 78.66 0 a39.33 39.33 0 1 0 -78.66 0z" fill="rgba(241, 177, 69, 0.5)"></path><path d="M783.97 392.53L822.27 392.53L822.27 430.83L783.97 430.83z" fill="rgba(241, 177, 69, 0.5)"></path><path d="M920.08 456.92L968.12 456.92L968.12 504.96L920.08 504.96z" stroke="rgba(241, 177, 69, 0.5)"></path><path d="M635.96 223.84a15.88 15.88 0 1 0 28.84-13.3z" fill="rgba(241, 177, 69, 0.5)"></path><path d="M757.63 106.16 a10.08 10.08 0 1 0 20.16 0 a10.08 10.08 0 1 0 -20.16 0z" fill="rgba(241, 177, 69, 0.5)"></path><path d="M407.69 432.41L457.2 432.41L457.2 481.92L407.69 481.92z" fill="rgba(241, 177, 69, 0.5)"></path><path d="M32.26 101.49L75.61 101.49L75.61 147.1L32.26 147.1z" stroke="rgba(241, 177, 69, 0.5)"></path><path d="M370.16 362.91a23.57 23.57 0 1 0 40.66 23.86z" stroke="rgba(241, 177, 69, 0.5)"></path><path d="M649.83 554.45L688.46 554.45L688.46 558.26L649.83 558.26z" stroke="rgba(241, 177, 69, 0.5)"></path><path d="M864.27 91.21 a0.95 0.95 0 1 0 1.9 0 a0.95 0.95 0 1 0 -1.9 0z" stroke="rgba(241, 177, 69, 0.5)"></path><path d="M610.32 26.74 a25.38 25.38 0 1 0 50.76 0 a25.38 25.38 0 1 0 -50.76 0z" fill="rgba(241, 177, 69, 0.5)"></path><path d="M34.1 372.45L82.43 372.45L82.43 376.92L34.1 376.92z" stroke="rgba(241, 177, 69, 0.5)"></path><path d="M668.11 371.5a42.95 42.95 0 1 0-66.21-54.72z" fill="rgba(241, 177, 69, 0.5)"></path><path d="M510.88 436.62L528.63 436.62L528.63 486.91L510.88 486.91z" stroke="rgba(241, 177, 69, 0.5)"></path><path d="M192.14 111.65a55.06 55.06 0 1 0 11.12-109.56z" stroke="rgba(241, 177, 69, 0.5)"></path><path d="M455.06 422.68L462.66 422.68L462.66 430.28L455.06 430.28z" stroke="rgba(241, 177, 69, 0.5)"></path><path d="M434.19 132.04a35.63 35.63 0 1 0-32.83 63.25z" stroke="rgba(241, 177, 69, 0.5)"></path><path d="M52.38 189.39L86.58 189.39L86.58 223.59L52.38 223.59z" fill="rgba(241, 177, 69, 0.5)"></path><path d="M324.83 400.47L362.45 400.47L362.45 438.09L324.83 438.09z" fill="rgba(241, 177, 69, 0.5)"></path><path d="M729.17 429.91a15.27 15.27 0 1 0-29.03-9.48z" stroke="rgba(241, 177, 69, 0.5)"></path><path d="M634.22 44.97 a6.12 6.12 0 1 0 12.24 0 a6.12 6.12 0 1 0 -12.24 0z" stroke="rgba(241, 177, 69, 0.5)"></path></g><defs><mask id="SvgjsMask1036"><rect width="1024" height="560" fill="#ffffff"></rect></mask></defs></svg>