<svg xmlns="http://www.w3.org/2000/svg" version="1.1" xmlns:xlink="http://www.w3.org/1999/xlink" xmlns:svgjs="http://svgjs.dev/svgjs" width="1920" height="5000" preserveAspectRatio="none" viewBox="0 0 1920 5000"><g mask="url(&quot;#SvgjsMask1022&quot;)" fill="none"><path d="M504.21 4629.24a7.31 7.31 0 1 0-7.42 12.6z" stroke="rgba(241, 177, 69, 0.3)"></path><path d="M828.5 1719.46a52.22 52.22 0 1 0 56.09 88.1z" fill="rgba(241, 177, 69, 0.3)"></path><path d="M1345.48 1986.49 a168.76 168.76 0 1 0 337.52 0 a168.76 168.76 0 1 0 -337.52 0z" fill="rgba(241, 177, 69, 0.3)"></path><path d="M1219.74 3787.53L1289.57 3787.53L1289.57 3857.36L1219.74 3857.36z" stroke="rgba(241, 177, 69, 0.3)"></path><path d="M573.9 1558.12a107.55 107.55 0 1 0-183.66 111.96z" stroke="rgba(241, 177, 69, 0.3)"></path><path d="M785.03 4248.23 a114.46 114.46 0 1 0 228.92 0 a114.46 114.46 0 1 0 -228.92 0z" stroke="rgba(241, 177, 69, 0.3)"></path><path d="M1633.58 110.47L1808.99 110.47L1808.99 285.88L1633.58 285.88z" fill="rgba(241, 177, 69, 0.3)"></path><path d="M545.47 2324.36 a93.31 93.31 0 1 0 186.62 0 a93.31 93.31 0 1 0 -186.62 0z" stroke="rgba(241, 177, 69, 0.3)"></path><path d="M764.88 3047.4 a60.51 60.51 0 1 0 121.02 0 a60.51 60.51 0 1 0 -121.02 0z" stroke="rgba(241, 177, 69, 0.3)"></path><path d="M518.22 3698.46L528.35 3698.46L528.35 3740.8L518.22 3740.8z" stroke="rgba(241, 177, 69, 0.3)"></path><path d="M1714.1 3185.8a137.05 137.05 0 1 0 272.88 25.8z" fill="rgba(241, 177, 69, 0.3)"></path><path d="M701.26 2558.37 a155.7 155.7 0 1 0 311.4 0 a155.7 155.7 0 1 0 -311.4 0z" fill="rgba(241, 177, 69, 0.3)"></path><path d="M1499.03 650.25L1620.63 650.25L1620.63 756.08L1499.03 756.08z" stroke="rgba(241, 177, 69, 0.3)"></path><path d="M193.11 1961.13L273.75 1961.13L273.75 2094.99L193.11 2094.99z" stroke="rgba(241, 177, 69, 0.3)"></path><path d="M63.59 2849.45a1.89 1.89 0 1 0-1.77-3.34z" stroke="rgba(241, 177, 69, 0.3)"></path><path d="M1652.13 3092.11a106.22 106.22 0 1 0 64.97-202.26z" fill="rgba(241, 177, 69, 0.3)"></path><path d="M292.33 3464.72a0.07 0.07 0 1 0-0.1-0.1z" stroke="rgba(241, 177, 69, 0.3)"></path><path d="M193.11 213.9L340.82 213.9L340.82 391.63L193.11 391.63z" fill="rgba(241, 177, 69, 0.3)"></path><path d="M1183.16 1999.23 a162.12 162.12 0 1 0 324.24 0 a162.12 162.12 0 1 0 -324.24 0z" stroke="rgba(241, 177, 69, 0.3)"></path><path d="M706.47 3268.28L875.5 3268.28L875.5 3295.06L706.47 3295.06z" fill="rgba(241, 177, 69, 0.3)"></path><path d="M1739.53 3354.12a20.87 20.87 0 1 0-15.43-38.78z" stroke="rgba(241, 177, 69, 0.3)"></path><path d="M129.48 4637.45L271.42 4637.45L271.42 4779.39L129.48 4779.39z" fill="rgba(241, 177, 69, 0.3)"></path><path d="M641.25 2960.93L747.92 2960.93L747.92 3067.6L641.25 3067.6z" fill="rgba(241, 177, 69, 0.3)"></path><path d="M512.37 811.66a117.93 117.93 0 1 0-235.45 13.97z" stroke="rgba(241, 177, 69, 0.3)"></path><path d="M1091.93 3679.26L1113.94 3679.26L1113.94 3701.27L1091.93 3701.27z" fill="rgba(241, 177, 69, 0.3)"></path><path d="M1289.83 3643.26 a21.32 21.32 0 1 0 42.64 0 a21.32 21.32 0 1 0 -42.64 0z" stroke="rgba(241, 177, 69, 0.3)"></path><path d="M1820.99 3477.62L1893.39 3477.62L1893.39 3550.02L1820.99 3550.02z" stroke="rgba(241, 177, 69, 0.3)"></path><path d="M1247.67 4241.28a161.69 161.69 0 1 0 317.42-61.78z" stroke="rgba(241, 177, 69, 0.3)"></path><path d="M732.53 718.96 a39.34 39.34 0 1 0 78.68 0 a39.34 39.34 0 1 0 -78.68 0z" stroke="rgba(241, 177, 69, 0.3)"></path><path d="M1271.76 1634.31L1295.98 1634.31L1295.98 1785.58L1271.76 1785.58z" fill="rgba(241, 177, 69, 0.3)"></path><path d="M582.42 960.13a99.39 99.39 0 1 0 192.14 50.94z" fill="rgba(241, 177, 69, 0.3)"></path><path d="M231.51 3552.52 a166.93 166.93 0 1 0 333.86 0 a166.93 166.93 0 1 0 -333.86 0z" stroke="rgba(241, 177, 69, 0.3)"></path><path d="M867.61 798.1a156.96 156.96 0 1 0 285.2-131.18z" fill="rgba(241, 177, 69, 0.3)"></path></g><defs><mask id="SvgjsMask1022"><rect width="1920" height="5000" fill="#ffffff"></rect></mask></defs></svg>