<svg id="Camada_1" data-name="Camada 1" xmlns="http://www.w3.org/2000/svg" viewBox="0 0 595.28 252.53"><defs><style>.cls-1{fill:#7b1141;fill-rule:evenodd;}</style></defs><title>Logotipo MRC</title><path class="cls-1" d="M143.62,127.38c-.07-26.54-8.52-45.27-21.36-60.64a.2.2,0,0,0-.32.23c10.62,17.08,17.49,35.38,16.62,55.53-.17,4,.48,4.73-1.86,2.48a216.6,216.6,0,0,0-28.33-23.5.2.2,0,0,0-.25.31c16.65,15,28.09,28,23,44.77h0c-5.53,20-28,27.73-30.4,57.94v.17a.17.17,0,0,0,0,.15.17.17,0,0,0,.15.06c7.82-.12,15.52.9,22.68,4.31a.17.17,0,0,0,.17,0,46.89,46.89,0,0,1,18-4.24.38.38,0,0,0,.34-.21.38.38,0,0,0,0-.4c-7.8-11.77-10.1-21.14-10.56-28.33a37.87,37.87,0,0,1,3.38-18.63c2.27-5.24,5.1-10.17,6.35-15.81,1-4.44.26-4.5,5.65-1.12a33.08,33.08,0,0,1,5.91,5.1,77.38,77.38,0,0,1,11.63,14.67.21.21,0,0,0,.26.08.2.2,0,0,0,.11-.24c-3.38-10.5-8.6-16.41-18.83-26.52C142.75,130.36,143.63,132.06,143.62,127.38Z"/><path class="cls-1" d="M33.51,231.52C25,230.43,18,227,13.84,221.44a.18.18,0,0,1,0-.25.2.2,0,0,1,.26,0c15.05,9.71,26.48,7.74,38.6,3.62C66.79,220,78.46,215.23,93.89,214c13-1.07,22.1,1.43,29.65,6a.2.2,0,0,0,.21,0c7.56-4.59,16.63-7.09,29.65-6,15.43,1.26,27.09,6,41.18,10.8,12.12,4.12,23.55,6.09,38.61-3.62a.19.19,0,0,1,.25,0,.18.18,0,0,1,0,.25c-4.19,5.6-11.17,9-19.67,10.08-15.76,2-25.88-3.73-40.28-7.45-16.47-4.26-36.44-6.51-49.72,5.3a.21.21,0,0,1-.27,0c-13.51-11.81-33.34-9.56-49.72-5.3C59.4,227.81,49.27,233.54,33.51,231.52Z"/><path class="cls-1" d="M22.81,215.53c13.66,7.15,23.85,5.54,34.85,2.28,13.17-3.9,24.08-7.78,38.51-8.81,12.06-.85,20.5.75,27.52,4.41a.17.17,0,0,0,.19,0c7-3.66,15.46-5.26,27.53-4.41,14.42,1,25.33,4.91,38.5,8.81,11,3.27,21.19,4.87,34.86-2.28a.2.2,0,0,1,.26.07.22.22,0,0,1-.05.27c-15.65,11.65-31.89,5-46.1.52A112.44,112.44,0,0,0,153.52,211c-10.54-.86-20.44.39-29.64,5.56a.17.17,0,0,1-.19,0c-9.2-5.17-19.1-6.42-29.63-5.56a112.41,112.41,0,0,0-25.37,5.37c-14.21,4.51-30.45,11.13-46.1-.52a.22.22,0,0,1-.05-.27A.21.21,0,0,1,22.81,215.53Z"/><path class="cls-1" d="M77,97.14C73,89.32,67.19,86.61,63.64,85.51a.39.39,0,0,0-.47.22.38.38,0,0,0,.15.49c4.43,2.66,9.59,6.57,11.82,12.65a.36.36,0,0,1,0,.36.37.37,0,0,1-.33.16,43.42,43.42,0,0,1-10-1.47c-9.81-2.8-19.71-13.83-17-23.24.58-2.06,2.44.83,7.45,2.26,4.34,1.24,7.23.2,11.51,1.62h0c6.89,2,14,10.52,11,18.53a.38.38,0,0,1-.34.25A.4.4,0,0,1,77,97.14Z"/><path class="cls-1" d="M102.67,112.26a13.63,13.63,0,0,0-8-7.33.23.23,0,0,0-.29.12.24.24,0,0,0,.09.31c2.65,1.7,5.73,4.17,7,7.93a.23.23,0,0,1,0,.22.25.25,0,0,1-.2.09,26.48,26.48,0,0,1-6-1.07c-5.94-1.88-11.79-8.78-10-14.48.39-1.25,1.47.55,4.51,1.51,2.63.83,4.41.24,7,1.18h0c4.17,1.32,8.36,6.66,6.39,11.5a.23.23,0,0,1-.21.14A.23.23,0,0,1,102.67,112.26Z"/><path class="cls-1" d="M129,44.84a16,16,0,0,0,1.21-12.72.28.28,0,0,0-.32-.19.28.28,0,0,0-.23.3c.3,3.71.16,8.36-2.47,12.22a.27.27,0,0,1-.23.12.29.29,0,0,1-.24-.13A31.29,31.29,0,0,1,123.45,38c-2.47-6.93-.15-17.35,6.49-19.71,1.46-.52.54,1.78,1.8,5.31,1.09,3.07,2.91,4.32,3.87,7.43h0c1.73,4.87-.31,12.6-6.27,14.2a.28.28,0,0,1-.29-.1A.27.27,0,0,1,129,44.84Z"/><path class="cls-1" d="M59.31,129.26a16.89,16.89,0,0,0-13.21-2.32.3.3,0,0,0-.22.32.29.29,0,0,0,.29.26c3.91,0,8.77.53,12.58,3.6a.3.3,0,0,1,.11.26.3.3,0,0,1-.16.23,33.08,33.08,0,0,1-7,2.92c-7.45,2-18.15-1.29-20.07-8.44-.42-1.56,1.9-.41,5.71-1.43,3.29-.89,4.75-2.68,8.08-3.43h0c5.23-1.41,13.15,1.37,14.32,7.73a.3.3,0,0,1-.12.29A.29.29,0,0,1,59.31,129.26Z"/><path class="cls-1" d="M118.23,146.88a17.38,17.38,0,0,0-9.4,10.14.31.31,0,0,0,.16.37.29.29,0,0,0,.38-.11c2.19-3.38,5.37-7.29,10.16-8.87a.28.28,0,0,1,.28.05.3.3,0,0,1,.12.26,33.5,33.5,0,0,1-1.41,7.7c-2.43,7.57-11.27,15-18.53,12.66-1.59-.51.71-1.88,2-5.74,1.07-3.35.34-5.63,1.55-8.93h0c1.71-5.31,8.55-10.61,14.7-8.07a.29.29,0,0,1,.19.27A.28.28,0,0,1,118.23,146.88Z"/><path class="cls-1" d="M175.54,68.05a14.46,14.46,0,0,1,6.76-9.24.26.26,0,0,1,.33.07.26.26,0,0,1,0,.33c-2.4,2.31-5.08,5.51-5.61,9.66a.27.27,0,0,0,.08.22.29.29,0,0,0,.24,0,27.44,27.44,0,0,0,6-2.36c5.76-3.17,10.4-11.53,7.36-17.06-.67-1.21-1.42.88-4.36,2.5-2.55,1.4-4.52,1.16-7,2.67h0c-4.05,2.23-7.28,8.62-4.24,13.23a.27.27,0,0,0,.25.11A.25.25,0,0,0,175.54,68.05Z"/><path class="cls-1" d="M207.32,124.67a11.71,11.71,0,0,1,9.28-1.19.21.21,0,0,1,.15.23.21.21,0,0,1-.21.17c-2.73-.13-6.13.08-8.89,2.1a.23.23,0,0,0-.09.18.2.2,0,0,0,.1.16,22.62,22.62,0,0,0,4.8,2.26c5.13,1.64,12.7-.31,14.27-5.23.34-1.08-1.32-.35-3.93-1.18-2.27-.73-3.24-2-5.53-2.66h0c-3.61-1.15-9.22.54-10.24,4.93a.21.21,0,0,0,.3.23Z"/><path class="cls-1" d="M164.13,143.39a11.11,11.11,0,0,1,8.7,1.87.19.19,0,0,1,.06.25.2.2,0,0,1-.25.08c-2.4-1-5.52-1.86-8.63-.92a.2.2,0,0,0-.1.31,21.92,21.92,0,0,0,3.59,3.55c4.09,3.09,11.49,3.73,14.46-.18.64-.86-1.07-.73-3.16-2.31-1.81-1.37-2.26-2.84-4.12-4.13h0c-2.87-2.16-8.43-2.43-10.74,1.19a.2.2,0,0,0,0,.21A.2.2,0,0,0,164.13,143.39Z"/><path class="cls-1" d="M146.58,71.6c-.8-9.45,2.85-15.24,5.43-18.29a.42.42,0,0,1,.69.46c-2.47,5-4.89,11.5-3.39,18.3a.4.4,0,0,0,.25.3.41.41,0,0,0,.4-.05,46.68,46.68,0,0,0,8.16-7.08c7.28-8.22,9.87-23.94,2-30.92-1.72-1.52-1.73,2.17-5.44,6.37-3.22,3.63-6.44,4.35-9.5,8.12h0c-5.1,5.78-6.59,17.63.76,23.15a.43.43,0,0,0,.46,0A.42.42,0,0,0,146.58,71.6Z"/><path class="cls-1" d="M104,92.05a14.4,14.4,0,0,0-6-9.72.25.25,0,0,0-.32,0,.25.25,0,0,0,0,.34c2.2,2.48,4.61,5.88,4.81,10a.25.25,0,0,1-.33.25,28.19,28.19,0,0,1-5.82-2.82c-5.49-3.61-9.44-12.28-6-17.55.76-1.15,1.34,1,4.14,2.83,2.43,1.59,4.4,1.51,6.76,3.21h0c3.86,2.54,6.56,9.15,3.18,13.49a.24.24,0,0,1-.26.09A.22.22,0,0,1,104,92.05Z"/><path class="cls-1" d="M194.21,151.54a14,14,0,0,1,11.11.7.23.23,0,0,1,.11.3.23.23,0,0,1-.28.15c-3.15-.76-7.17-1.28-10.85.46a.24.24,0,0,0-.13.18.22.22,0,0,0,.07.22,27.3,27.3,0,0,0,5.1,3.72c5.61,3.06,14.88,2.49,17.82-2.9.65-1.18-1.45-.7-4.32-2.26-2.49-1.36-3.32-3.1-5.86-4.35h0c-3.95-2.15-10.88-1.45-13.06,3.45a.23.23,0,0,0,0,.26A.23.23,0,0,0,194.21,151.54Z"/><path class="cls-1" d="M86.79,154.53c-7.34-.19-11.64,2.89-13.88,5a.31.31,0,0,0,0,.42.32.32,0,0,0,.42.09c3.73-2.14,8.66-4.3,14-3.46a.31.31,0,0,1,.24.19.29.29,0,0,1,0,.3,36.23,36.23,0,0,1-5.11,6.64c-6,6-18,8.72-23.8,2.94-1.26-1.26,1.6-1.43,4.67-4.49,2.66-2.66,3.07-5.18,5.85-7.72h0c4.24-4.22,13.33-5.91,17.93-.48a.34.34,0,0,1,0,.35A.33.33,0,0,1,86.79,154.53Z"/><path class="cls-1" d="M153.21,126.44c1.31-8.42,5.73-12.69,8.63-14.8a.37.37,0,0,1,.5.55c-3.21,3.81-6.71,9-6.85,15.24a.38.38,0,0,0,.16.32.37.37,0,0,0,.35,0,41.47,41.47,0,0,0,8.63-4.45c8.1-5.62,13.71-18.78,8.32-26.54-1.18-1.7-2,1.52-6.11,4.39-3.58,2.49-6.54,2.43-10,5.07h0c-5.68,4-9.5,14-4.26,20.35a.36.36,0,0,0,.39.13A.38.38,0,0,0,153.21,126.44Z"/><path class="cls-1" d="M122.61,136.83a15.57,15.57,0,0,0-8.93-8.61.28.28,0,0,0-.34.13.28.28,0,0,0,.09.35c3,2,6.45,4.94,7.79,9.27a.25.25,0,0,1,0,.25.27.27,0,0,1-.24.1,30,30,0,0,1-6.89-1.4c-6.75-2.31-13.25-10.37-11-16.85.48-1.41,1.67.67,5.12,1.86,3,1,5,.4,8,1.55h0c4.74,1.63,9.38,7.86,7,13.34a.28.28,0,0,1-.25.17A.27.27,0,0,1,122.61,136.83Z"/><path class="cls-1" d="M149.34,96.61a16.2,16.2,0,0,1,6.4-11.2.29.29,0,0,1,.38,0,.3.3,0,0,1,0,.38c-2.4,2.89-5,6.81-5.06,11.52a.26.26,0,0,0,.12.24.3.3,0,0,0,.26,0,31.23,31.23,0,0,0,6.47-3.41c6.06-4.28,10.2-14.22,6.09-20-.9-1.27-1.47,1.16-4.57,3.35-2.68,1.89-4.91,1.87-7.51,3.88h0c-4.26,3-7.07,10.58-3.08,15.35a.28.28,0,0,0,.49-.14Z"/><path class="cls-1" d="M110.06,68.39c.81-9.45-2.84-15.24-5.42-18.29a.42.42,0,0,0-.7.46c2.48,5,4.89,11.5,3.4,18.3a.42.42,0,0,1-.26.3.39.39,0,0,1-.39,0A46.38,46.38,0,0,1,98.52,62c-7.27-8.22-9.87-23.94-2-30.92,1.72-1.52,1.73,2.17,5.45,6.37,3.22,3.63,6.43,4.35,9.5,8.12v0c5.11,5.77,6.59,17.62-.76,23.14a.39.39,0,0,1-.45,0A.41.41,0,0,1,110.06,68.39Z"/><path class="cls-1" d="M97.23,138.54A17.18,17.18,0,0,0,84,135.21a.31.31,0,0,0-.25.31.3.3,0,0,0,.28.28c4,.29,8.87,1.19,12.51,4.59a.28.28,0,0,1,.09.27.26.26,0,0,1-.17.22,33.51,33.51,0,0,1-7.34,2.45c-7.72,1.48-18.34-2.65-19.77-10.06-.31-1.61,2-.27,5.91-1,3.41-.65,5-2.37,8.47-2.88h0c5.42-1,13.26,2.37,14,8.91a.29.29,0,0,1-.15.29A.27.27,0,0,1,97.23,138.54Z"/><path class="cls-1" d="M55.21,150.54a13.18,13.18,0,0,0-10.48.42.25.25,0,0,0-.12.29.23.23,0,0,0,.27.14c3-.64,6.79-1,10.21.66a.24.24,0,0,1,.13.18.22.22,0,0,1-.08.2,25.25,25.25,0,0,1-4.88,3.4c-5.36,2.77-14.08,2-16.74-3.11-.58-1.12,1.39-.63,4.12-2,2.37-1.23,3.19-2.85,5.62-4h0c3.77-2,10.29-1.14,12.24,3.52a.23.23,0,0,1-.29.31Z"/><path class="cls-1" d="M51.08,106.87a10.39,10.39,0,0,0-7.2-4.05.18.18,0,0,0-.19.14.18.18,0,0,0,.12.21c2.26.8,5,2.1,6.56,4.66a.17.17,0,0,1,0,.17.18.18,0,0,1-.14.11,20.26,20.26,0,0,1-4.67.25c-4.73-.36-10.27-4.46-9.92-9,.08-1,1.19.15,3.61.33,2.09.16,3.31-.58,5.4-.33h0c3.33.26,7.36,3.49,6.73,7.42a.18.18,0,0,1-.13.15A.17.17,0,0,1,51.08,106.87Z"/><path class="cls-1" d="M183.49,91.9c4.51-7.23,10.25-9.43,13.75-10.23a.37.37,0,0,1,.43.24.36.36,0,0,1-.18.46C193,84.61,187.79,88,185.2,93.7a.34.34,0,0,0,0,.35.37.37,0,0,0,.31.18,41.33,41.33,0,0,0,9.68-.7c9.65-2,20-11.89,18.07-21.15-.41-2-2.41.63-7.34,1.64-4.27.88-7-.33-11.2.73h0c-6.77,1.4-14.22,9.12-11.91,17a.36.36,0,0,0,.31.27A.38.38,0,0,0,183.49,91.9Z"/><path class="cls-1" d="M173.07,129.52a15.71,15.71,0,0,1,11.54-4.73.26.26,0,0,1,.26.25.26.26,0,0,1-.21.29c-3.55.78-7.86,2.22-10.71,5.77a.28.28,0,0,0,0,.26.27.27,0,0,0,.18.18,30.55,30.55,0,0,0,7,1.25c7.17.34,16.24-4.78,16.56-11.65.07-1.51-1.81,0-5.47-.17-3.17-.15-4.86-1.49-8-1.51h0c-5-.23-11.68,3.87-11.48,9.87a.29.29,0,0,0,.17.25A.28.28,0,0,0,173.07,129.52Z"/><path class="cls-1" d="M144.79,151.87a14,14,0,0,1,5.52,9.67.23.23,0,0,1-.18.26.25.25,0,0,1-.29-.15c-1.1-3.05-2.88-6.7-6.35-8.82a.23.23,0,0,0-.23,0,.26.26,0,0,0-.14.18,27.22,27.22,0,0,0-.3,6.31c.53,6.38,6.11,13.81,12.23,13.31,1.34-.11-.21-1.61-.48-4.87-.24-2.82.76-4.47.4-7.28h0c-.38-4.48-4.77-9.89-10.07-9a.25.25,0,0,0-.11.43Z"/><path class="cls-1" d="M81.5,119.5a12.38,12.38,0,0,0-8.8-4.45.23.23,0,0,0-.23.18.21.21,0,0,0,.15.24c2.75.84,6.06,2.25,8.09,5.22a.21.21,0,0,1,0,.2.21.21,0,0,1-.16.13,23.64,23.64,0,0,1-5.56.56c-5.67-.18-12.5-4.78-12.32-10.22,0-1.19,1.43.12,4.32.21,2.51.08,3.92-.87,6.42-.69h0c4,.13,9,3.78,8.43,8.5a.19.19,0,0,1-.15.18A.2.2,0,0,1,81.5,119.5Z"/><path class="cls-1" d="M129.64,107.57a15.4,15.4,0,0,0-5.46-11,.25.25,0,0,0-.35,0,.26.26,0,0,0,0,.35c2.12,2.88,4.37,6.74,4.17,11.21a.24.24,0,0,1-.12.21.27.27,0,0,1-.26,0,29.59,29.59,0,0,1-5.94-3.58c-5.52-4.4-8.89-14-4.68-19.34.92-1.15,1.33,1.18,4.15,3.42,2.43,1.95,4.55,2,6.9,4.1h0c3.87,3.09,6.12,10.42,2.08,14.73a.26.26,0,0,1-.28.07A.27.27,0,0,1,129.64,107.57Z"/><path class="cls-1" d="M129.35,68.45a8.71,8.71,0,0,0,.65-6.92.15.15,0,0,0-.17-.1.14.14,0,0,0-.12.16,10.18,10.18,0,0,1-1.35,6.64.14.14,0,0,1-.13.07.15.15,0,0,1-.12-.07,16.76,16.76,0,0,1-1.79-3.5C125,61,126.24,55.3,129.85,54c.79-.28.29,1,1,2.89.6,1.67,1.58,2.35,2.11,4h0c.94,2.64-.17,6.85-3.41,7.71a.12.12,0,0,1-.15,0A.14.14,0,0,1,129.35,68.45Z"/><path class="cls-1" d="M83.21,67.8a14.54,14.54,0,0,0-8-8.38.25.25,0,0,0-.31.11.24.24,0,0,0,.07.33c2.7,2,5.79,4.86,6.86,8.94a.25.25,0,0,1-.06.23.24.24,0,0,1-.22.08,28.23,28.23,0,0,1-6.35-1.57c-6.18-2.43-11.91-10.19-9.58-16.12.51-1.3,1.53.69,4.69,1.93,2.73,1.07,4.67.58,7.36,1.77h0c4.34,1.71,8.4,7.69,6,12.69a.23.23,0,0,1-.23.14A.24.24,0,0,1,83.21,67.8Z"/><path class="cls-1" d="M174.44,159.67c7,.84,10.66,4.36,12.49,6.7a.31.31,0,0,1-.43.43c-3.25-2.55-7.63-5.28-12.81-5.21a.29.29,0,0,0-.25.14.3.3,0,0,0,0,.29,34.35,34.35,0,0,0,3.93,7c4.88,6.53,15.92,10.78,22.18,6.09,1.37-1-1.31-1.58-3.81-4.91-2.16-2.89-2.2-5.34-4.48-8.13h0c-3.43-4.59-11.82-7.45-16.95-2.93a.33.33,0,0,0-.09.33A.31.31,0,0,0,174.44,159.67Z"/><path class="cls-1" d="M196.05,136.27a9.43,9.43,0,0,1,7.49.21.16.16,0,0,1,.09.2.16.16,0,0,1-.19.11,11,11,0,0,0-7.29.56.18.18,0,0,0-.09.13.2.2,0,0,0,.06.15,18.29,18.29,0,0,0,3.52,2.38c3.85,1.93,10.08,1.32,11.93-2.38.4-.8-1-.43-3-1.42-1.7-.85-2.3-2-4-2.78h0c-2.71-1.36-7.35-.72-8.7,2.62a.15.15,0,0,0,0,.18A.16.16,0,0,0,196.05,136.27Z"/><path class="cls-1" d="M197.12,109.56a14.27,14.27,0,0,1,10.69-3.89.26.26,0,0,1,.23.23.24.24,0,0,1-.21.26c-3.26.58-7.24,1.74-10,4.87a.26.26,0,0,0-.05.23.27.27,0,0,0,.16.17,27.76,27.76,0,0,0,6.29,1.39c6.52.57,15-3.76,15.51-10,.12-1.36-1.65-.06-5-.35-2.88-.25-4.37-1.53-7.26-1.66h0c-4.57-.39-10.77,3.1-10.81,8.58a.25.25,0,0,0,.14.23A.26.26,0,0,0,197.12,109.56Z"/><path class="cls-1" d="M264.46,221.79h1.41V211.45l4.66,6.83h.07l4.66-6.85v10.36h1.44V209h-1.46l-4.66,7-4.66-7h-1.46v12.79Zm23.64,0h1.45V209H288.1v12.79Zm12.85,0h1.41V211.3l8.25,10.49h1.16V209h-1.41v10.25L302.3,209H301v12.79Zm22.22,0h1.44V209h-1.44v12.79Zm17.23.18c2.54,0,4.37-1.42,4.37-3.62v0c0-2-1.32-3-4.17-3.62s-3.47-1.28-3.47-2.48v0c0-1.15,1.06-2.07,2.72-2.07a5.59,5.59,0,0,1,3.69,1.39l.84-1.11a6.66,6.66,0,0,0-4.49-1.57c-2.43,0-4.2,1.48-4.2,3.49v0c0,2.1,1.35,3,4.29,3.69,2.69.57,3.32,1.25,3.32,2.43v0c0,1.26-1.13,2.17-2.84,2.17a6.07,6.07,0,0,1-4.39-1.81l-.89,1.06A7.46,7.46,0,0,0,340.4,222Zm18.07-.18h1.46V210.33h4.3V209H354.18v1.33h4.29v11.46Zm20.18-13.92h1.16l2.1-1.7-1.44-.66-1.82,2.36Zm-4.06,13.92h9.33v-1.32H376V216h7v-1.32h-7v-4.36h7.8V209h-9.24v12.79Zm19.9,0h1.44v-5h3.66l3.7,5h1.78l-3.93-5.23c2-.36,3.47-1.6,3.47-3.72v0a3.53,3.53,0,0,0-1-2.52A5,5,0,0,0,400,209h-5.5v12.79Zm1.44-6.27v-5.19h3.95c2.06,0,3.27.95,3.27,2.53v0c0,1.65-1.37,2.63-3.29,2.63Zm19.55,6.27h1.45V209h-1.45v12.79Zm18.79.22a6.48,6.48,0,0,0,6.54-6.62v0a6.53,6.53,0,1,0-13.05,0v0a6.42,6.42,0,0,0,6.51,6.58Zm0-1.34a5.08,5.08,0,0,1-5-5.28v0a5,5,0,0,1,5-5.25,5.09,5.09,0,0,1,5,5.28v0A5,5,0,0,1,434.3,220.67Z"/><path class="cls-1" d="M462.18,115.93a19.58,19.58,0,0,0,12.69-4.5,19.91,19.91,0,0,0-12.69-35.25h-9.92a.92.92,0,0,0-.92.88v37.75a1,1,0,0,0,.92,1.12ZM472,88a12.61,12.61,0,0,1-1.76,17.79,12.23,12.23,0,0,1-8.06,2.87h-3.62V83.41h3.62A12.65,12.65,0,0,1,472,88Zm41.63,27a.92.92,0,0,1-.88.92H487.41a.92.92,0,0,1-.92-.92v-38a.93.93,0,0,1,.92-.93h24.42a.93.93,0,0,1,.92.93v5.42a.88.88,0,0,1-.92.88H493.72v9.08H510.9a.89.89,0,0,1,.93.88v5.42a.93.93,0,0,1-.93.93H493.72v9h19a.92.92,0,0,1,.88.93Z"/><path class="cls-1" d="M288.1,114.49l-7.37-13.06-1-1.76-.23-.42c6.72-1.48,10.19-6.44,10.19-11.3a11,11,0,0,0-4-8.39,15.88,15.88,0,0,0-10.47-3.38H261.65a.93.93,0,0,0-.93.88v3.66l.46.83v0l6.16,10.84h-6.62v22.61a.93.93,0,0,0,.93.92h5.41a.93.93,0,0,0,.89-.92V99.67h3.47l1,1.76,7.92,14,.1.13a.84.84,0,0,0,.74.42h6.2a.91.91,0,0,0,.89-1,.66.66,0,0,0-.1-.42l0-.09ZM274.66,90.73l-4.12-7.32h4.63c5,0,7.23,2.36,7.23,4.54,0,1.85-1.67,3.89-5.42,4.4-.42,0-.88.09-1.34.09l-1-1.71Zm45.39,9.82a.89.89,0,0,0-.92-.88h-3.06L310.42,77l-.05-.23a.91.91,0,0,0-.83-.55h-6.07a.93.93,0,0,0-.84.55l0,.28-9.41,37.57c0,.05,0,.09,0,.09v.19a.93.93,0,0,0,.88,1h5.6a.91.91,0,0,0,.84-.65.19.19,0,0,1,0-.09l2-8.29h7.92l2,8.24.05.14a.94.94,0,0,0,.83.65H319a.9.9,0,0,0,.88-1v-.1l-.05-.23-1.95-7.73h1.26a.89.89,0,0,0,.92-.88v-5.42Zm-15.7-.88,2.17-8.57,2.14,8.57Zm21-23.49,15.15,15.15,15.15-15.15v38.87a.89.89,0,0,1-.88.92h-5.33a.93.93,0,0,1-.93-.92V93.37l-8,8-8-8v21.68a.89.89,0,0,1-.88.92h-5.37a.92.92,0,0,1-.88-.92V76.18ZM379.75,116a19.92,19.92,0,1,1,19.92-19.92A19.95,19.95,0,0,1,379.75,116Zm0-32.61a12.67,12.67,0,1,0,12.64,12.69,12.72,12.72,0,0,0-12.64-12.69ZM431,104.25a11.92,11.92,0,0,1-1.8,5.93c-1.62,2.69-5,5.84-11.77,5.84-5.37,0-9.59-2.27-11.86-6.3a14.33,14.33,0,0,1-1.62-5c0-.09-.05-.19-.05-.28a.94.94,0,0,1,.84-.92h5.7a.83.83,0,0,1,.74.64v0s0,.09,0,.14a5.67,5.67,0,0,0,.79,2c1,1.62,2.78,2.45,5.42,2.45,2.83,0,4.63-.79,5.61-2.36a5.83,5.83,0,0,0,.74-2.22c0-1.3-.33-2.83-2.74-3.8a11.31,11.31,0,0,0-3.61-.79,19.23,19.23,0,0,1-6.35-1.25c-4.67-1.9-7.22-5.61-7.22-10.47a12.23,12.23,0,0,1,3.47-8.15c2.41-2.46,5.84-3.71,10.1-3.71a13.32,13.32,0,0,1,9.68,3.66,14.46,14.46,0,0,1,3.85,8.57v.09a.91.91,0,0,1-.88,1h-5.61a1,1,0,0,1-.79-.75v-.13a10.08,10.08,0,0,0-.83-2.5c-.65-1.16-1.9-2.69-5.42-2.69-2.27,0-3.94.51-5,1.57a5.19,5.19,0,0,0-1.35,3.06c0,1.3.33,2.78,2.74,3.75a11.74,11.74,0,0,0,3.61.74,18.47,18.47,0,0,1,6.35,1.3A10.94,10.94,0,0,1,431,104.25Z"/><path class="cls-1" d="M299.5,190a38.2,38.2,0,0,0,6.12-3.51v-.08h.09c0-.08,0-.08.08-.08a1.59,1.59,0,0,0,.08-2.29l-6.13-7.27a1.64,1.64,0,0,0-2.12-.41c0,.08-.09.08-.09.08a22.42,22.42,0,1,1-1.22-38,1.59,1.59,0,0,0,1.8-.16l7.68-6.46a1.68,1.68,0,0,0,.08-2.37l-.16-.16-.25-.16a35.22,35.22,0,1,0-6,60.85Zm62.07.51-13-23-1.79-3.11-.41-.73c11.84-2.62,18-11.36,18-19.94a19.34,19.34,0,0,0-7.11-14.79c-4.57-3.92-11-6-18.46-6H314.91a1.62,1.62,0,0,0-1.63,1.55V131l.81,1.48v.08L325,151.66H313.28v39.87a1.63,1.63,0,0,0,1.63,1.63h9.56a1.62,1.62,0,0,0,1.55-1.63V164.4h6.13l1.72,3.11,14,24.67.16.25a1.55,1.55,0,0,0,1.31.73h10.95a1.59,1.59,0,0,0,1.55-1.71,1.25,1.25,0,0,0-.16-.74l-.08-.16Zm-23.7-41.92-7.27-12.91h8.17c8.82,0,12.74,4.17,12.74,8,0,3.27-2.94,6.86-9.56,7.76a21.82,21.82,0,0,1-2.36.17l-1.72-3Zm56.53-13.07v44.69h10.7a1.87,1.87,0,0,1,2,1.64v9.56a1.86,1.86,0,0,1-2,1.63H370.46a1.64,1.64,0,0,1-1.64-1.63v-9.56a1.65,1.65,0,0,1,1.64-1.64h11.11V135.56H370.46a1.57,1.57,0,0,1-1.64-1.55v-9.56a1.65,1.65,0,0,1,1.64-1.64H405.1a1.87,1.87,0,0,1,2,1.64V134c0,.9-.9,1.55-2,1.55Zm68.37,36.93A21.1,21.1,0,0,1,459.58,183c-2.86,4.74-8.74,10.29-20.75,10.29-9.48,0-16.91-4-20.92-11.11a25,25,0,0,1-2.86-8.9c0-.17-.08-.33-.08-.49a1.68,1.68,0,0,1,1.47-1.64h10.05a1.47,1.47,0,0,1,1.31,1.15v.08c0,.08.08.16.08.24a9.63,9.63,0,0,0,1.39,3.6c1.72,2.86,4.9,4.33,9.56,4.33,5,0,8.17-1.39,9.89-4.17a10,10,0,0,0,1.3-3.92c0-2.29-.57-5-4.82-6.7a19.73,19.73,0,0,0-6.37-1.39,33.51,33.51,0,0,1-11.19-2.21c-8.26-3.35-12.75-9.88-12.75-18.46A21.55,21.55,0,0,1,421,129.27c4.25-4.33,10.29-6.54,17.81-6.54,4.82,0,11.77,1.06,17.08,6.46a25.47,25.47,0,0,1,6.78,15.11v.17a1.59,1.59,0,0,1-1.55,1.71h-9.89a1.75,1.75,0,0,1-1.39-1.31v-.24a18.54,18.54,0,0,0-1.47-4.41c-1.14-2.05-3.35-4.74-9.56-4.74-4,0-6.95.9-8.82,2.78a9,9,0,0,0-2.37,5.39c0,2.29.57,4.9,4.82,6.62a21.12,21.12,0,0,0,6.37,1.3A32.65,32.65,0,0,1,450,153.86c8.26,3.43,12.75,10,12.75,18.63ZM513.9,134a1.83,1.83,0,0,1-2,1.63h-15.6v55.48a1.84,1.84,0,0,1-1.56,2h-9.64a1.84,1.84,0,0,1-1.55-2V135.64H467.66A1.64,1.64,0,0,1,466,134v-9.56a1.57,1.57,0,0,1,1.64-1.55h44.28a1.77,1.77,0,0,1,2,1.55V134Zm32.26,59.15A35.13,35.13,0,1,0,511,158a35.19,35.19,0,0,0,35.13,35.13Zm0-57.52A22.35,22.35,0,1,1,523.78,158,22.35,22.35,0,0,1,546.16,135.64Z"/></svg>