<svg width="1440" height="1024" viewBox="0 0 1440 1024" fill="none" xmlns="http://www.w3.org/2000/svg">
<g clip-path="url(#clip0_22_12)">
<mask id="mask0_22_12" style="mask-type:luminance" maskUnits="userSpaceOnUse" x="0" y="0" width="1440" height="1024">
<path d="M0 1024H1440V0H0V1024Z" fill="white"/>
</mask>
<g mask="url(#mask0_22_12)">
<path d="M1784.07 560.014C1721.27 509.697 1623.09 544.612 1539.35 542.012C1474.39 539.995 1410.55 524.275 1347.52 546.461C1285.15 568.409 1232.89 613.212 1190.5 664.786C1149.18 715.059 1136.65 777.326 1109.78 835.711C1072 917.819 980.416 994.222 1000.49 1077.71C1019.95 1158.64 1130.82 1169.66 1200.61 1213.46C1271.67 1258.06 1327.37 1354.74 1414.26 1337.39C1504.32 1319.4 1538.41 1204.44 1599.86 1133.71C1642.21 1084.98 1681.43 1038.54 1719.21 986.408C1766.28 921.464 1837.25 866.894 1848.93 790.07C1861.56 707.031 1846.79 610.267 1784.07 560.014Z" fill="#F1B145"/>
<path d="M-21.2292 -247.983C-101.978 -248.783 -183.278 -223.143 -246.317 -172.674C-306.379 -124.588 -337.005 -50.5207 -359.696 22.9973C-380.261 89.6273 -378.573 158.512 -369.888 227.7C-361.061 298.023 -359.039 376.733 -308.994 426.92C-259.538 476.516 -179.588 468.362 -111.912 486.406C-46.2692 503.908 17.7518 551.438 82.6468 531.34C147.457 511.269 174.338 436.775 217.466 384.4C259.341 333.546 308.1 289.714 332.122 228.374C360.833 155.062 392.809 74.5263 368.097 -0.228699C342.794 -76.7717 269.025 -124.962 201.012 -168.243C133.24 -211.371 59.0978 -247.187 -21.2292 -247.983Z" fill="#EDEDED"/>
</g>
</g>
<defs>
<clipPath id="clip0_22_12">
<rect width="1440" height="1024" fill="white" transform="matrix(-1 0 0 -1 1440 1024)"/>
</clipPath>
</defs>
</svg>
